HIERARCHY
ROOT mixamorig:Hips
{
	OFFSET -0.000008 104.274872 1.554316
	CHANNELS 6 Xposition Yposition Zposition Xrotation Yrotation Zrotation
	JOINT mixamorig:Spine
	{
		OFFSET -0.000005 10.181595 0.131519
		CHANNELS 6 Xposition Yposition Zposition Xrotation Yrotation Zrotation
		JOINT mixamorig:Spine1
		{
			OFFSET -0.000000 9.893959 -1.470707
			CHANNELS 6 Xposition Yposition Zposition Xrotation Yrotation Zrotation
			JOINT mixamorig:Spine2
			{
				OFFSET -0.000000 9.220757 -1.370641
				CHANNELS 6 Xposition Yposition Zposition Xrotation Yrotation Zrotation
				JOINT mixamorig:Neck
				{
					OFFSET 0.000001 16.740417 -2.049036
					CHANNELS 6 Xposition Yposition Zposition Xrotation Yrotation Zrotation
					JOINT mixamorig:Head
					{
						OFFSET 0.000000 9.617874 1.685006
						CHANNELS 6 Xposition Yposition Zposition Xrotation Yrotation Zrotation
						JOINT mixamorig:HeadTop_End
						{
							OFFSET 0.000002 22.037354 7.501101
							CHANNELS 6 Xposition Yposition Zposition Xrotation Yrotation Zrotation
							End Site
							{
								OFFSET 0.000168 2310.654297 -282.823242
							}
						}
					}
				}
				JOINT mixamorig:RightShoulder
				{
					OFFSET -4.569970 11.014908 -2.160885
					CHANNELS 6 Xposition Yposition Zposition Xrotation Yrotation Zrotation
					JOINT mixamorig:RightArm
					{
						OFFSET -10.592851 -0.524811 -2.232101
						CHANNELS 6 Xposition Yposition Zposition Xrotation Yrotation Zrotation
						JOINT mixamorig:RightForeArm
						{
							OFFSET -27.841511 0.000031 -0.000004
							CHANNELS 6 Xposition Yposition Zposition Xrotation Yrotation Zrotation
							JOINT mixamorig:RightHand
							{
								OFFSET -28.328831 -0.000015 0.000015
								CHANNELS 6 Xposition Yposition Zposition Xrotation Yrotation Zrotation
								JOINT mixamorig:RightHandThumb1
								{
									OFFSET -2.464806 -1.573990 2.681852
									CHANNELS 6 Xposition Yposition Zposition Xrotation Yrotation Zrotation
									JOINT mixamorig:RightHandThumb2
									{
										OFFSET -3.215179 -1.872803 1.924282
										CHANNELS 6 Xposition Yposition Zposition Xrotation Yrotation Zrotation
										JOINT mixamorig:RightHandThumb3
										{
											OFFSET -2.654831 -1.527969 1.512609
											CHANNELS 6 Xposition Yposition Zposition Xrotation Yrotation Zrotation
											JOINT mixamorig:RightHandThumb4
											{
												OFFSET -2.018814 -1.152008 1.108052
												CHANNELS 6 Xposition Yposition Zposition Xrotation Yrotation Zrotation
												End Site
												{
													OFFSET -188.809540 -114.533607 132.431396
												}
											}
										}
									}
								}
								JOINT mixamorig:RightHandIndex1
								{
									OFFSET -9.108284 -0.517868 2.259835
									CHANNELS 6 Xposition Yposition Zposition Xrotation Yrotation Zrotation
									JOINT mixamorig:RightHandIndex2
									{
										OFFSET -3.699989 0.000000 0.001215
										CHANNELS 6 Xposition Yposition Zposition Xrotation Yrotation Zrotation
										JOINT mixamorig:RightHandIndex3
										{
											OFFSET -2.850006 0.000031 -0.000522
											CHANNELS 6 Xposition Yposition Zposition Xrotation Yrotation Zrotation
											JOINT mixamorig:RightHandIndex4
											{
												OFFSET -2.772186 -0.000015 -0.000020
												CHANNELS 6 Xposition Yposition Zposition Xrotation Yrotation Zrotation
												End Site
												{
													OFFSET -277.218445 0.000000 -0.050231
												}
											}
										}
									}
								}
								JOINT mixamorig:RightHandMiddle1
								{
									OFFSET -9.532516 -0.000031 -0.000023
									CHANNELS 6 Xposition Yposition Zposition Xrotation Yrotation Zrotation
									JOINT mixamorig:RightHandMiddle2
									{
										OFFSET -3.700005 -0.000015 0.003713
										CHANNELS 6 Xposition Yposition Zposition Xrotation Yrotation Zrotation
										JOINT mixamorig:RightHandMiddle3
										{
											OFFSET -2.949974 0.000015 -0.002054
											CHANNELS 6 Xposition Yposition Zposition Xrotation Yrotation Zrotation
											JOINT mixamorig:RightHandMiddle4
											{
												OFFSET -2.946640 0.000000 -0.000156
												CHANNELS 6 Xposition Yposition Zposition Xrotation Yrotation Zrotation
												End Site
												{
													OFFSET -294.664337 0.000000 -0.113670
												}
											}
										}
									}
								}
								JOINT mixamorig:RightHandRing1
								{
									OFFSET -9.103600 -0.043076 -1.865134
									CHANNELS 6 Xposition Yposition Zposition Xrotation Yrotation Zrotation
									JOINT mixamorig:RightHandRing2
									{
										OFFSET -3.379288 0.000000 -0.001055
										CHANNELS 6 Xposition Yposition Zposition Xrotation Yrotation Zrotation
										JOINT mixamorig:RightHandRing3
										{
											OFFSET -2.889687 -0.000015 0.000379
											CHANNELS 6 Xposition Yposition Zposition Xrotation Yrotation Zrotation
											JOINT mixamorig:RightHandRing4
											{
												OFFSET -2.638809 -0.000015 0.000941
												CHANNELS 6 Xposition Yposition Zposition Xrotation Yrotation Zrotation
												End Site
												{
													OFFSET -263.880371 0.000000 0.516020
												}
											}
										}
									}
								}
								JOINT mixamorig:RightHandPinky1
								{
									OFFSET -8.076683 -0.486710 -3.806280
									CHANNELS 6 Xposition Yposition Zposition Xrotation Yrotation Zrotation
									JOINT mixamorig:RightHandPinky2
									{
										OFFSET -3.600014 -0.000015 -0.003747
										CHANNELS 6 Xposition Yposition Zposition Xrotation Yrotation Zrotation
										JOINT mixamorig:RightHandPinky3
										{
											OFFSET -2.099983 0.000000 -0.005739
											CHANNELS 6 Xposition Yposition Zposition Xrotation Yrotation Zrotation
											JOINT mixamorig:RightHandPinky4
											{
												OFFSET -2.115768 -0.000031 -0.003680
												CHANNELS 6 Xposition Yposition Zposition Xrotation Yrotation Zrotation
												End Site
												{
													OFFSET -211.577087 0.000000 -0.350686
												}
											}
										}
									}
								}
							}
						}
					}
				}
				JOINT mixamorig:LeftShoulder
				{
					OFFSET 4.570447 11.014725 -2.160855
					CHANNELS 6 Xposition Yposition Zposition Xrotation Yrotation Zrotation
					JOINT mixamorig:LeftArm
					{
						OFFSET 10.592371 -0.524597 -2.232119
						CHANNELS 6 Xposition Yposition Zposition Xrotation Yrotation Zrotation
						JOINT mixamorig:LeftForeArm
						{
							OFFSET 27.841532 -0.000031 0.000026
							CHANNELS 6 Xposition Yposition Zposition Xrotation Yrotation Zrotation
							JOINT mixamorig:LeftHand
							{
								OFFSET 28.328846 -0.000061 0.000022
								CHANNELS 6 Xposition Yposition Zposition Xrotation Yrotation Zrotation
								JOINT mixamorig:LeftHandThumb1
								{
									OFFSET 2.466141 -1.576172 2.681732
									CHANNELS 6 Xposition Yposition Zposition Xrotation Yrotation Zrotation
									JOINT mixamorig:LeftHandThumb2
									{
										OFFSET 3.217812 -1.872070 1.916482
										CHANNELS 6 Xposition Yposition Zposition Xrotation Yrotation Zrotation
										JOINT mixamorig:LeftHandThumb3
										{
											OFFSET 2.656029 -1.528778 1.514513
											CHANNELS 6 Xposition Yposition Zposition Xrotation Yrotation Zrotation
											JOINT mixamorig:LeftHandThumb4
											{
												OFFSET 2.020889 -1.154053 1.115139
												CHANNELS 6 Xposition Yposition Zposition Xrotation Yrotation Zrotation
												End Site
												{
													OFFSET 190.885437 -115.081749 130.048782
												}
											}
										}
									}
								}
								JOINT mixamorig:LeftHandIndex1
								{
									OFFSET 9.109314 -0.518021 2.259871
									CHANNELS 6 Xposition Yposition Zposition Xrotation Yrotation Zrotation
									JOINT mixamorig:LeftHandIndex2
									{
										OFFSET 3.699989 0.000000 -0.000322
										CHANNELS 6 Xposition Yposition Zposition Xrotation Yrotation Zrotation
										JOINT mixamorig:LeftHandIndex3
										{
											OFFSET 2.850006 0.000000 0.000352
											CHANNELS 6 Xposition Yposition Zposition Xrotation Yrotation Zrotation
											JOINT mixamorig:LeftHandIndex4
											{
												OFFSET 2.774864 -0.000031 -0.000027
												CHANNELS 6 Xposition Yposition Zposition Xrotation Yrotation Zrotation
												End Site
												{
													OFFSET 277.486267 0.000000 -0.009857
												}
											}
										}
									}
								}
								JOINT mixamorig:LeftHandMiddle1
								{
									OFFSET 9.533394 0.000061 0.000044
									CHANNELS 6 Xposition Yposition Zposition Xrotation Yrotation Zrotation
									JOINT mixamorig:LeftHandMiddle2
									{
										OFFSET 3.699989 -0.000015 -0.000231
										CHANNELS 6 Xposition Yposition Zposition Xrotation Yrotation Zrotation
										JOINT mixamorig:LeftHandMiddle3
										{
											OFFSET 2.949997 -0.000015 -0.000059
											CHANNELS 6 Xposition Yposition Zposition Xrotation Yrotation Zrotation
											JOINT mixamorig:LeftHandMiddle4
											{
												OFFSET 2.952896 0.000031 0.000063
												CHANNELS 6 Xposition Yposition Zposition Xrotation Yrotation Zrotation
												End Site
												{
													OFFSET 295.289337 0.000000 0.022810
												}
											}
										}
									}
								}
								JOINT mixamorig:LeftHandRing1
								{
									OFFSET 9.104523 -0.042999 -1.865074
									CHANNELS 6 Xposition Yposition Zposition Xrotation Yrotation Zrotation
									JOINT mixamorig:LeftHandRing2
									{
										OFFSET 3.150009 -0.000031 0.000043
										CHANNELS 6 Xposition Yposition Zposition Xrotation Yrotation Zrotation
										JOINT mixamorig:LeftHandRing3
										{
											OFFSET 2.949982 -0.000015 0.000040
											CHANNELS 6 Xposition Yposition Zposition Xrotation Yrotation Zrotation
											JOINT mixamorig:LeftHandRing4
											{
												OFFSET 2.644348 0.000000 0.000057
												CHANNELS 6 Xposition Yposition Zposition Xrotation Yrotation Zrotation
												End Site
												{
													OFFSET 264.434631 0.000000 0.012105
												}
											}
										}
									}
								}
								JOINT mixamorig:LeftHandPinky1
								{
									OFFSET 8.077789 -0.486847 -3.806259
									CHANNELS 6 Xposition Yposition Zposition Xrotation Yrotation Zrotation
									JOINT mixamorig:LeftHandPinky2
									{
										OFFSET 3.599953 0.000031 0.014727
										CHANNELS 6 Xposition Yposition Zposition Xrotation Yrotation Zrotation
										JOINT mixamorig:LeftHandPinky3
										{
											OFFSET 2.100021 0.000015 0.007705
											CHANNELS 6 Xposition Yposition Zposition Xrotation Yrotation Zrotation
											JOINT mixamorig:LeftHandPinky4
											{
												OFFSET 2.125504 0.000031 0.007517
												CHANNELS 6 Xposition Yposition Zposition Xrotation Yrotation Zrotation
												End Site
												{
													OFFSET 212.550781 0.000000 0.625752
												}
											}
										}
									}
								}
							}
						}
					}
				}
			}
		}
	}
	JOINT mixamorig:RightUpLeg
	{
		OFFSET -8.207787 -6.751648 -1.599560
		CHANNELS 6 Xposition Yposition Zposition Xrotation Yrotation Zrotation
		JOINT mixamorig:RightLeg
		{
			OFFSET -0.000002 -44.370117 0.345942
			CHANNELS 6 Xposition Yposition Zposition Xrotation Yrotation Zrotation
			JOINT mixamorig:RightFoot
			{
				OFFSET 0.000003 -44.423679 -3.043532
				CHANNELS 6 Xposition Yposition Zposition Xrotation Yrotation Zrotation
				JOINT mixamorig:RightToeBase
				{
					OFFSET -0.000002 -8.728671 10.710558
					CHANNELS 6 Xposition Yposition Zposition Xrotation Yrotation Zrotation
					JOINT mixamorig:RightToe_End
					{
						OFFSET -0.000001 -0.000679 9.278119
						CHANNELS 6 Xposition Yposition Zposition Xrotation Yrotation Zrotation
						End Site
						{
							OFFSET 0.000000 -0.067690 927.812134
						}
					}
				}
			}
		}
	}
	JOINT mixamorig:LeftUpLeg
	{
		OFFSET 8.207793 -6.751686 -1.599556
		CHANNELS 6 Xposition Yposition Zposition Xrotation Yrotation Zrotation
		JOINT mixamorig:LeftLeg
		{
			OFFSET -0.000004 -44.370014 0.346954
			CHANNELS 6 Xposition Yposition Zposition Xrotation Yrotation Zrotation
			JOINT mixamorig:LeftFoot
			{
				OFFSET -0.000001 -44.423672 -3.044401
				CHANNELS 6 Xposition Yposition Zposition Xrotation Yrotation Zrotation
				JOINT mixamorig:LeftToeBase
				{
					OFFSET -0.000002 -8.728669 10.710558
					CHANNELS 6 Xposition Yposition Zposition Xrotation Yrotation Zrotation
					JOINT mixamorig:LeftToe_End
					{
						OFFSET -0.000003 -0.000679 9.278133
						CHANNELS 6 Xposition Yposition Zposition Xrotation Yrotation Zrotation
						End Site
						{
							OFFSET 0.000000 -0.068021 927.813477
						}
					}
				}
			}
		}
	}
}
MOTION
Frames: 3
Frame Time: 0.033333
0.000006 104.270477 1.554256 0.000010 0.000003 -0.000113 -0.000005 10.181587 0.131522 0.000001 -0.000003 0.000084 -0.000000 9.893967 -1.470711 0.000001 0.000000 -0.000000 -0.000000 9.220802 -1.370642 0.000000 -0.000000 -0.000000 0.000001 16.740433 -2.049030 0.000000 -0.000000 -0.000000 0.000000 9.617859 1.685014 0.000000 0.000000 0.000000 0.000002 22.037384 7.501101 0.000000 -0.000000 0.000000 -4.569968 11.014880 -2.160881 0.000008 0.000001 -0.000038 -10.592785 -0.524848 -2.231756 79.828362 62.696164 -54.006142 -27.841486 -0.000003 0.000585 30.222948 104.322445 -38.339173 -28.328831 0.000006 0.000023 -0.000322 -0.000044 0.000008 -2.464871 -1.574128 2.682107 99.125046 -194.353402 162.371382 -3.215102 -1.873018 1.924644 243.441384 -12.076901 -40.498907 -2.654527 -1.528120 1.513155 358.028490 -151.971163 -293.792664 -2.018835 -1.152001 1.108061 0.000002 -0.000004 0.000005 -9.108094 -0.517890 2.260423 177.669408 17.066549 -164.837695 -3.699793 -0.000038 0.001812 174.844223 17.296814 -146.860842 -2.849982 -0.000014 0.000044 170.362854 13.090621 -107.381564 -2.772181 -0.000015 -0.000023 0.000001 -0.000000 0.000001 -9.532275 -0.000016 0.000560 180.598070 13.906249 -185.794710 -3.699718 0.000013 0.004297 180.437847 12.417601 -183.311308 -2.949901 -0.000013 -0.001472 174.575168 10.964131 -127.378971 -2.946618 0.000000 -0.000155 0.000000 0.000005 -0.000003 -9.103345 -0.043044 -1.864555 180.294864 13.574098 -182.182729 -3.378982 0.000052 -0.000469 182.144725 12.984073 -198.789773 -2.889506 -0.000092 0.000961 175.540452 9.545041 -130.582562 -2.638809 -0.000017 0.000945 0.000003 0.000004 -0.000000 -8.076473 -0.486694 -3.805700 177.918846 14.008542 -162.082616 -3.599744 -0.000053 -0.003157 180.178683 12.748345 -178.764943 -2.099638 -0.000103 -0.005153 178.320243 8.648789 -154.966829 -2.115774 -0.000043 -0.003672 -0.000003 0.000001 -0.000004 4.570446 11.014691 -2.160851 -0.000018 0.000010 -0.000021 10.592518 -0.524534 -2.232388 62.955411 -62.108010 40.475172 27.841789 -0.000045 -0.000126 208.941374 -75.671242 216.761053 28.328833 -0.000013 0.000017 0.000020 -0.000087 -0.000000 2.466055 -1.576179 2.681854 -3.543325 116.969284 -44.985108 3.217794 -1.872027 1.916538 60.288618 132.319274 -117.404982 2.656069 -1.528748 1.514623 76.283610 151.286026 -137.257760 2.020879 -1.154070 1.115151 -0.000000 0.000003 0.000004 9.109077 -0.517752 2.260002 200.083589 -15.828335 283.739609 3.699732 0.000139 -0.000185 194.058269 -23.683959 240.938174 2.849768 0.000147 0.000482 193.626123 -24.640724 -122.642590 2.774884 -0.000046 -0.000028 0.000002 -0.000002 -0.000005 9.533202 0.000378 0.000180 200.603134 -12.092187 -60.450541 3.699726 0.000239 -0.000080 198.194891 -17.971233 -89.279943 2.949746 0.000202 0.000093 197.527213 -18.795373 -94.065959 2.952861 -0.000013 0.000068 -0.000003 0.000001 -0.000001 9.104355 -0.042693 -1.864916 205.830332 -13.216448 -53.609390 3.149812 0.000412 0.000202 202.008104 -10.618055 -51.087892 2.949767 0.000422 0.000211 202.726093 -11.364154 -52.682714 2.644322 0.000014 0.000044 -0.000007 -0.000003 -0.000002 8.077614 -0.486568 -3.806060 219.353096 -19.730596 -52.313519 3.599909 0.000391 0.014917 217.681284 -6.444934 -19.706728 2.099939 0.000352 0.007895 39.391289 185.492515 -196.195271 2.125492 -0.000029 0.007511 -0.000000 -0.000002 0.000002 -8.207786 -6.751667 -1.599560 -0.077001 -0.000003 0.000080 -0.000002 -44.370110 0.345938 0.153719 -0.000000 -0.000000 0.000000 -44.423679 -3.043532 -0.076700 0.000000 -0.000002 -0.000006 -8.728667 10.710559 -0.000009 -0.000000 -0.000000 -0.000001 -0.000679 9.278123 0.000000 -0.000000 -0.000000 8.207792 -6.751710 -1.599556 -0.074518 -0.000003 0.000081 -0.000002 -44.370014 0.346960 0.148822 0.000002 0.000000 -0.000001 -44.423664 -3.044403 -0.074314 0.000000 -0.000002 -0.000004 -8.728671 10.710558 0.000007 -0.000000 -0.000000 0.000000 -0.000680 9.278137 -0.000000 0.000000 -0.000001 
0.000006 104.270477 1.554256 0.000010 0.000003 -0.000113 -0.000005 10.181587 0.131522 0.000001 -0.000003 0.000084 -0.000000 9.893967 -1.470711 0.000001 0.000000 -0.000000 -0.000000 9.220802 -1.370642 0.000000 -0.000000 -0.000000 0.000001 16.740433 -2.049030 0.000000 -0.000000 -0.000000 0.000000 9.617859 1.685014 0.000000 0.000000 0.000000 0.000002 22.037384 7.501101 0.000000 -0.000000 0.000000 -4.569968 11.014880 -2.160881 0.000008 0.000001 -0.000038 -10.592783 -0.524857 -2.231740 83.076766 63.104261 -57.092588 -27.841501 -0.000015 0.000582 34.804434 102.646262 -42.764709 -28.328829 0.000007 0.000023 -0.000323 -0.000044 0.000007 -2.464891 -1.574131 2.682149 94.318758 -197.081215 162.591793 -3.215132 -1.873012 1.924650 238.585010 -6.497572 -39.359150 -2.654626 -1.528149 1.513155 366.675290 -155.719721 -278.499515 -2.018839 -1.151996 1.108063 -0.000006 -0.000003 0.000007 -9.108171 -0.517910 2.260422 172.646446 18.346646 -136.881608 -3.699788 -0.000036 0.001808 173.995818 18.540654 -144.225250 -2.849923 -0.000033 0.000062 172.239571 14.368691 -123.424606 -2.772171 -0.000001 -0.000020 0.000001 -0.000002 -0.000000 -9.532330 -0.000074 0.000561 175.964675 15.800208 -152.477444 -3.699752 -0.000031 0.004301 178.658296 13.823847 -168.247886 -2.949858 -0.000024 -0.001479 175.671782 10.991333 -137.038006 -2.946625 0.000028 -0.000159 0.000002 -0.000003 0.000000 -9.103382 -0.043091 -1.864540 177.648644 14.329057 -161.132932 -3.378987 0.000011 -0.000459 180.077801 10.857799 -180.975424 -2.889501 -0.000085 0.000954 176.517934 6.723259 -126.109471 -2.638811 0.000017 0.000940 0.000001 0.000000 0.000001 -8.076511 -0.486727 -3.805697 175.474800 13.771070 -142.573560 -3.599780 -0.000106 -0.003177 177.732150 9.328532 -148.117625 -2.099828 -0.000136 -0.005157 176.325705 4.644271 -97.850082 -2.115779 -0.000049 -0.003676 -0.000001 -0.000000 -0.000002 4.570446 11.014691 -2.160851 -0.000018 0.000010 -0.000021 10.592520 -0.524535 -2.232398 68.084862 -62.767492 44.794884 27.841789 -0.000042 -0.000124 202.541228 -75.972099 208.633032 28.328833 -0.000015 0.000028 0.000019 -0.000090 -0.000000 2.466117 -1.576150 2.681898 -13.459887 150.044776 -53.097259 3.217801 -1.872045 1.916539 26.220895 138.719079 -91.160028 2.656052 -1.528762 1.514611 43.723367 148.777530 -113.270252 2.020887 -1.154077 1.115137 0.000001 0.000002 0.000004 9.109166 -0.517712 2.260067 222.692417 -19.189121 313.229989 3.699818 0.000253 -0.000120 219.638475 -20.910660 305.761259 2.849866 0.000310 0.000576 221.926220 -16.609763 -41.712471 2.774879 -0.000030 -0.000023 -0.000001 0.000000 0.000000 9.533261 0.000364 0.000247 221.079700 -15.983056 -41.072263 3.699835 0.000333 -0.000034 217.859662 -17.480349 -48.288409 2.949879 0.000316 0.000145 220.111561 -13.947896 -37.052031 2.952880 -0.000031 0.000055 -0.000000 0.000000 0.000000 9.104400 -0.042701 -1.864857 225.581710 -15.649765 -36.224649 3.149851 0.000397 0.000260 219.671588 -15.704550 -41.847483 2.949858 0.000379 0.000256 219.149488 -11.669212 -32.069067 2.644318 0.000046 0.000053 0.000000 -0.000001 0.000000 8.077660 -0.486584 -3.806021 233.955726 -19.046177 -36.940870 3.599853 0.000390 0.014945 226.755792 -10.922506 -25.614797 2.099944 0.000360 0.007919 43.296706 186.615016 -197.388027 2.125498 0.000000 0.007534 0.000004 0.000000 -0.000001 -8.207786 -6.751667 -1.599560 -0.077001 -0.000003 0.000080 -0.000002 -44.370110 0.345938 0.153719 -0.000000 -0.000000 0.000000 -44.423679 -3.043532 -0.076700 0.000000 -0.000002 -0.000006 -8.728667 10.710559 -0.000009 -0.000000 -0.000000 -0.000001 -0.000679 9.278123 0.000000 -0.000000 -0.000000 8.207792 -6.751710 -1.599556 -0.074518 -0.000003 0.000081 -0.000002 -44.370014 0.346960 0.148822 0.000002 0.000000 -0.000001 -44.423664 -3.044403 -0.074314 0.000000 -0.000002 -0.000004 -8.728671 10.710558 0.000007 -0.000000 -0.000000 0.000000 -0.000680 9.278137 -0.000000 0.000000 -0.000001 
0.000006 104.270477 1.554256 0.000010 0.000003 -0.000113 -0.000005 10.181587 0.131522 0.000001 -0.000003 0.000084 -0.000000 9.893967 -1.470711 0.000001 0.000000 -0.000000 -0.000000 9.220802 -1.370642 0.000000 -0.000000 -0.000000 0.000001 16.740433 -2.049030 0.000000 -0.000000 -0.000000 0.000000 9.617859 1.685014 0.000000 0.000000 0.000000 0.000002 22.037384 7.501101 0.000000 -0.000000 0.000000 -4.569968 11.014880 -2.160881 0.000008 0.000001 -0.000038 -10.592789 -0.524849 -2.231748 85.242448 59.641581 -55.620167 -27.841469 0.000000 0.000605 31.870212 107.691920 -42.688225 -28.328838 0.000022 0.000031 -0.000319 -0.000045 0.000008 -2.464890 -1.574131 2.682166 92.849605 -198.748847 163.010196 -3.215143 -1.872996 1.924679 239.221420 -4.259151 -37.594656 -2.654616 -1.528151 1.513171 366.884048 -157.980623 -276.001934 -2.018831 -1.151995 1.108068 -0.000003 0.000001 0.000007 -9.108150 -0.517893 2.260438 174.766673 19.693712 -150.752343 -3.699782 -0.000024 0.001813 175.498378 19.863713 -154.560515 -2.849919 -0.000014 0.000047 171.915370 15.167101 -124.073883 -2.772163 -0.000015 -0.000013 -0.000001 0.000001 -0.000000 -9.532307 -0.000068 0.000573 177.226880 16.379171 -161.806102 -3.699755 -0.000010 0.004294 179.223809 14.937820 -173.443611 -2.949862 -0.000041 -0.001473 175.500468 12.161576 -139.445798 -2.946623 0.000001 -0.000159 -0.000000 0.000000 -0.000001 -9.103372 -0.043066 -1.864527 177.988869 14.809809 -164.310528 -3.378986 0.000013 -0.000467 180.341842 12.540406 -183.243361 -2.889469 -0.000084 0.000958 176.182722 8.629222 -132.990067 -2.638810 0.000013 0.000936 0.000004 0.000001 0.000000 -8.076490 -0.486689 -3.805686 177.046372 14.958125 -156.726354 -3.599747 -0.000085 -0.003177 178.711367 11.037202 -163.064933 -2.099677 -0.000116 -0.005170 177.529730 6.240892 -132.348425 -2.115771 -0.000071 -0.003675 -0.000002 0.000002 -0.000005 4.570446 11.014691 -2.160851 -0.000018 0.000010 -0.000021 10.592528 -0.524520 -2.232394 71.801182 -60.270081 45.586264 27.841787 -0.000066 -0.000106 202.878994 -70.413568 212.003895 28.328833 -0.000027 0.000024 0.000023 -0.000088 -0.000000 2.466138 -1.576158 2.681886 1.451414 140.684220 -66.691695 3.217828 -1.872018 1.916538 37.619125 138.841968 -102.217824 2.656054 -1.528734 1.514617 55.027245 148.919653 -122.050850 2.020884 -1.154083 1.115161 0.000003 0.000007 0.000002 9.109169 -0.517721 2.260070 220.516974 -17.514280 314.704217 3.699832 0.000299 -0.000122 217.880699 -17.660719 311.271227 2.849896 0.000355 0.000541 220.324103 -13.994616 -36.965076 2.774879 -0.000031 -0.000022 -0.000000 0.000000 0.000000 9.533293 0.000366 0.000246 220.645368 -14.441457 -37.760329 3.699860 0.000332 -0.000046 217.274820 -13.987055 -39.971414 2.949922 0.000322 0.000153 219.475903 -11.078108 -30.253671 2.952873 -0.000015 0.000080 -0.000000 -0.000000 0.000000 9.104433 -0.042714 -1.864867 225.164426 -13.096378 -30.861534 3.149890 0.000380 0.000252 220.196898 -12.721836 -33.889360 2.949892 0.000389 0.000263 220.302574 -10.016195 -26.864188 2.644325 0.000030 0.000038 0.000000 0.000000 0.000000 8.077689 -0.486580 -3.806032 233.002423 -15.240992 -30.605893 3.599880 0.000340 0.014940 229.020710 -8.517953 -19.265682 2.099952 0.000350 0.007929 49.724785 185.542266 -192.673148 2.125512 0.000016 0.007522 0.000002 -0.000000 -0.000000 -8.207786 -6.751667 -1.599560 -0.077001 -0.000003 0.000080 -0.000002 -44.370110 0.345938 0.153719 -0.000000 -0.000000 0.000000 -44.423679 -3.043532 -0.076700 0.000000 -0.000002 -0.000006 -8.728667 10.710559 -0.000009 -0.000000 -0.000000 -0.000001 -0.000679 9.278123 0.000000 -0.000000 -0.000000 8.207792 -6.751710 -1.599556 -0.074518 -0.000003 0.000081 -0.000002 -44.370014 0.346960 0.148822 0.000002 0.000000 -0.000001 -44.423664 -3.044403 -0.074314 0.000000 -0.000002 -0.000004 -8.728671 10.710558 0.000007 -0.000000 -0.000000 0.000000 -0.000680 9.278137 -0.000000 0.000000 -0.000001 
